<svg xmlns="http://www.w3.org/2000/svg" xmlns:xlink="http://www.w3.org/1999/xlink" width="155" zoomAndPan="magnify" viewBox="0 0 116.25 37.5" height="50" preserveAspectRatio="xMidYMid meet" version="1.0"><defs><g/><clipPath id="a782f186a9"><path d="M 0.394531 15.238281 L 11.496094 15.238281 L 11.496094 28.5625 L 0.394531 28.5625 Z M 0.394531 15.238281 " clip-rule="nonzero"/></clipPath><clipPath id="00375830c6"><path d="M 106 16 L 115.113281 16 L 115.113281 28 L 106 28 Z M 106 16 " clip-rule="nonzero"/></clipPath><clipPath id="a28257b900"><path d="M 41 0 L 81.816406 0 L 81.816406 15 L 41 15 Z M 41 0 " clip-rule="nonzero"/></clipPath><clipPath id="f69609ef84"><path d="M 40.367188 4 L 75 4 L 75 15 L 40.367188 15 Z M 40.367188 4 " clip-rule="nonzero"/></clipPath><clipPath id="7b21ac4ccc"><path d="M 0.394531 20 L 25 20 L 25 35.167969 L 0.394531 35.167969 Z M 0.394531 20 " clip-rule="nonzero"/></clipPath><clipPath id="e4724c45bf"><path d="M 0.394531 8 L 25 8 L 25 27 L 0.394531 27 Z M 0.394531 8 " clip-rule="nonzero"/></clipPath><clipPath id="cb583bb398"><path d="M 24 4.820312 L 33.796875 4.820312 L 33.796875 14 L 24 14 Z M 24 4.820312 " clip-rule="nonzero"/></clipPath></defs><g clip-path="url(#a782f186a9)"><path fill="#000000" d="M 11.5 28.554688 L 7.414062 28.554688 L 4.878906 24.382812 L 3.902344 24.382812 L 3.902344 28.554688 L 0.410156 28.554688 L 0.40625 24.316406 L 3.882812 21.09375 L 5.308594 21.101562 C 6.050781 21.109375 6.730469 20.582031 6.730469 19.761719 C 6.730469 18.9375 6.042969 18.425781 5.308594 18.425781 L 3.882812 18.425781 L 0.394531 15.25 L 5.382812 15.25 C 8.222656 15.25 10.25 17.1875 10.25 19.574219 C 10.25 21.234375 9.265625 22.621094 7.976562 23.214844 Z M 11.5 28.554688 " fill-opacity="1" fill-rule="nonzero"/></g><g fill="#000000" fill-opacity="0.302"><g transform="translate(12.328928, 27.547108)"><g><path d="M 6.578125 0.222656 C 10.042969 0.222656 12.496094 -2.152344 12.496094 -5.535156 C 12.496094 -8.921875 10.042969 -11.292969 6.578125 -11.292969 C 3.117188 -11.292969 0.679688 -8.921875 0.679688 -5.535156 C 0.679688 -2.152344 3.117188 0.222656 6.578125 0.222656 Z M 3.242188 -5.535156 C 3.242188 -7.527344 4.617188 -8.90625 6.578125 -8.90625 C 8.558594 -8.90625 9.917969 -7.527344 9.917969 -5.535156 C 9.917969 -3.542969 8.558594 -2.167969 6.578125 -2.167969 C 4.617188 -2.167969 3.242188 -3.542969 3.242188 -5.535156 Z M 3.242188 -5.535156 "/></g></g></g><g fill="#000000" fill-opacity="0.302"><g transform="translate(25.497659, 27.547108)"><g><path d="M 4.222656 0 L 6.738281 0 L 6.738281 -3.90625 L 10.804688 -11.070312 L 7.941406 -11.070312 L 6.578125 -8.507812 L 5.488281 -6.5 L 4.382812 -8.507812 L 3.003906 -11.070312 L 0.140625 -11.070312 L 4.222656 -3.875 Z M 4.222656 0 "/></g></g></g><g fill="#000000" fill-opacity="0.302"><g transform="translate(36.437344, 27.547108)"><g><path d="M 0.140625 0 L 2.832031 0 L 3.574219 -1.914062 L 7.972656 -1.914062 L 8.714844 0 L 11.402344 0 L 7.007812 -11.070312 L 4.539062 -11.070312 Z M 4.222656 -3.890625 L 5.773438 -7.941406 L 7.339844 -3.890625 Z M 4.222656 -3.890625 "/></g></g></g><g fill="#000000" fill-opacity="0.302"><g transform="translate(47.977765, 27.547108)"><g><path d="M 1.328125 0 L 8.683594 0 L 8.683594 -2.355469 L 3.84375 -2.355469 L 3.84375 -11.070312 L 1.328125 -11.070312 Z M 1.328125 0 "/></g></g></g><g fill="#000000" fill-opacity="0.302"><g transform="translate(57.083633, 27.547108)"><g/></g></g><g fill="#000000" fill-opacity="0.302"><g transform="translate(60.798701, 27.547108)"><g><path d="M 1.328125 0 L 8.683594 0 L 8.683594 -2.355469 L 3.84375 -2.355469 L 3.84375 -11.070312 L 1.328125 -11.070312 Z M 1.328125 0 "/></g></g></g><g fill="#000000" fill-opacity="0.302"><g transform="translate(69.904569, 27.547108)"><g><path d="M 0.140625 0 L 2.832031 0 L 3.574219 -1.914062 L 7.972656 -1.914062 L 8.714844 0 L 11.402344 0 L 7.007812 -11.070312 L 4.539062 -11.070312 Z M 4.222656 -3.890625 L 5.773438 -7.941406 L 7.339844 -3.890625 Z M 4.222656 -3.890625 "/></g></g></g><g fill="#000000" fill-opacity="0.302"><g transform="translate(81.44499, 27.547108)"><g><path d="M 1.328125 0 L 3.828125 0 L 3.828125 -6.785156 L 8.714844 0 L 10.851562 0 L 10.851562 -11.070312 L 8.351562 -11.070312 L 8.351562 -4.332031 L 3.464844 -11.070312 L 1.328125 -11.070312 Z M 1.328125 0 "/></g></g></g><g fill="#000000" fill-opacity="0.302"><g transform="translate(93.617769, 27.547108)"><g><path d="M 1.328125 0 L 5.710938 0 C 9.207031 0 11.546875 -2.230469 11.546875 -5.535156 C 11.546875 -8.824219 9.207031 -11.070312 5.710938 -11.070312 L 1.328125 -11.070312 Z M 3.84375 -2.308594 L 3.84375 -8.761719 L 5.628906 -8.761719 C 7.625 -8.761719 8.96875 -7.480469 8.96875 -5.535156 C 8.96875 -3.589844 7.625 -2.308594 5.664062 -2.308594 Z M 3.84375 -2.308594 "/></g></g></g><g clip-path="url(#00375830c6)"><g fill="#000000" fill-opacity="0.302"><g transform="translate(105.822158, 27.547108)"><g><path d="M 5.1875 0.222656 C 7.8125 0.222656 9.425781 -1.027344 9.425781 -3.117188 C 9.425781 -4.871094 8.273438 -5.914062 5.519531 -6.5625 C 3.828125 -6.960938 3.242188 -7.386719 3.242188 -8.066406 C 3.242188 -8.792969 3.890625 -9.238281 4.949219 -9.238281 C 6.105469 -9.238281 6.800781 -8.636719 6.800781 -7.640625 L 9.222656 -7.640625 C 9.222656 -9.871094 7.542969 -11.292969 4.917969 -11.292969 C 2.371094 -11.292969 0.789062 -10.042969 0.789062 -8.019531 C 0.789062 -6.214844 2.007812 -5.140625 4.601562 -4.585938 C 6.167969 -4.253906 6.878906 -3.796875 6.878906 -3.019531 C 6.878906 -2.277344 6.214844 -1.851562 5.171875 -1.851562 C 3.953125 -1.851562 3.164062 -2.46875 3.164062 -3.527344 L 0.695312 -3.527344 C 0.695312 -1.234375 2.402344 0.222656 5.1875 0.222656 Z M 5.1875 0.222656 "/></g></g></g></g><g fill="#000000" fill-opacity="1"><g transform="translate(11.629619, 26.847798)"><g><path d="M 6.578125 0.222656 C 10.042969 0.222656 12.496094 -2.152344 12.496094 -5.535156 C 12.496094 -8.921875 10.042969 -11.292969 6.578125 -11.292969 C 3.117188 -11.292969 0.679688 -8.921875 0.679688 -5.535156 C 0.679688 -2.152344 3.117188 0.222656 6.578125 0.222656 Z M 3.242188 -5.535156 C 3.242188 -7.527344 4.617188 -8.90625 6.578125 -8.90625 C 8.558594 -8.90625 9.917969 -7.527344 9.917969 -5.535156 C 9.917969 -3.542969 8.558594 -2.167969 6.578125 -2.167969 C 4.617188 -2.167969 3.242188 -3.542969 3.242188 -5.535156 Z M 3.242188 -5.535156 "/></g></g></g><g fill="#000000" fill-opacity="1"><g transform="translate(24.798349, 26.847798)"><g><path d="M 4.222656 0 L 6.738281 0 L 6.738281 -3.90625 L 10.804688 -11.070312 L 7.941406 -11.070312 L 6.578125 -8.507812 L 5.488281 -6.5 L 4.382812 -8.507812 L 3.003906 -11.070312 L 0.140625 -11.070312 L 4.222656 -3.875 Z M 4.222656 0 "/></g></g></g><g fill="#000000" fill-opacity="1"><g transform="translate(35.738035, 26.847798)"><g><path d="M 0.140625 0 L 2.832031 0 L 3.574219 -1.914062 L 7.972656 -1.914062 L 8.714844 0 L 11.402344 0 L 7.007812 -11.070312 L 4.539062 -11.070312 Z M 4.222656 -3.890625 L 5.773438 -7.941406 L 7.339844 -3.890625 Z M 4.222656 -3.890625 "/></g></g></g><g fill="#000000" fill-opacity="1"><g transform="translate(47.278456, 26.847798)"><g><path d="M 1.328125 0 L 8.683594 0 L 8.683594 -2.355469 L 3.84375 -2.355469 L 3.84375 -11.070312 L 1.328125 -11.070312 Z M 1.328125 0 "/></g></g></g><g fill="#000000" fill-opacity="1"><g transform="translate(56.384324, 26.847798)"><g/></g></g><g fill="#000000" fill-opacity="1"><g transform="translate(60.099392, 26.847798)"><g><path d="M 1.328125 0 L 8.683594 0 L 8.683594 -2.355469 L 3.84375 -2.355469 L 3.84375 -11.070312 L 1.328125 -11.070312 Z M 1.328125 0 "/></g></g></g><g fill="#000000" fill-opacity="1"><g transform="translate(69.20526, 26.847798)"><g><path d="M 0.140625 0 L 2.832031 0 L 3.574219 -1.914062 L 7.972656 -1.914062 L 8.714844 0 L 11.402344 0 L 7.007812 -11.070312 L 4.539062 -11.070312 Z M 4.222656 -3.890625 L 5.773438 -7.941406 L 7.339844 -3.890625 Z M 4.222656 -3.890625 "/></g></g></g><g fill="#000000" fill-opacity="1"><g transform="translate(80.745681, 26.847798)"><g><path d="M 1.328125 0 L 3.828125 0 L 3.828125 -6.785156 L 8.714844 0 L 10.851562 0 L 10.851562 -11.070312 L 8.351562 -11.070312 L 8.351562 -4.332031 L 3.464844 -11.070312 L 1.328125 -11.070312 Z M 1.328125 0 "/></g></g></g><g fill="#000000" fill-opacity="1"><g transform="translate(92.91846, 26.847798)"><g><path d="M 1.328125 0 L 5.710938 0 C 9.207031 0 11.546875 -2.230469 11.546875 -5.535156 C 11.546875 -8.824219 9.207031 -11.070312 5.710938 -11.070312 L 1.328125 -11.070312 Z M 3.84375 -2.308594 L 3.84375 -8.761719 L 5.628906 -8.761719 C 7.625 -8.761719 8.96875 -7.480469 8.96875 -5.535156 C 8.96875 -3.589844 7.625 -2.308594 5.664062 -2.308594 Z M 3.84375 -2.308594 "/></g></g></g><g fill="#000000" fill-opacity="1"><g transform="translate(105.122849, 26.847798)"><g><path d="M 5.1875 0.222656 C 7.8125 0.222656 9.425781 -1.027344 9.425781 -3.117188 C 9.425781 -4.871094 8.273438 -5.914062 5.519531 -6.5625 C 3.828125 -6.960938 3.242188 -7.386719 3.242188 -8.066406 C 3.242188 -8.792969 3.890625 -9.238281 4.949219 -9.238281 C 6.105469 -9.238281 6.800781 -8.636719 6.800781 -7.640625 L 9.222656 -7.640625 C 9.222656 -9.871094 7.542969 -11.292969 4.917969 -11.292969 C 2.371094 -11.292969 0.789062 -10.042969 0.789062 -8.019531 C 0.789062 -6.214844 2.007812 -5.140625 4.601562 -4.585938 C 6.167969 -4.253906 6.878906 -3.796875 6.878906 -3.019531 C 6.878906 -2.277344 6.214844 -1.851562 5.171875 -1.851562 C 3.953125 -1.851562 3.164062 -2.46875 3.164062 -3.527344 L 0.695312 -3.527344 C 0.695312 -1.234375 2.402344 0.222656 5.1875 0.222656 Z M 5.1875 0.222656 "/></g></g></g><g clip-path="url(#a28257b900)"><path fill="#8bc349" d="M 73.394531 12.445312 C 73.484375 11.878906 73.773438 10.261719 74.226562 9.605469 C 74.226562 9.605469 74.378906 10.226562 73.816406 12.523438 C 73.804688 12.585938 73.875 12.628906 73.925781 12.589844 C 76.261719 10.46875 74.476562 8.09375 74.476562 8.09375 C 74.476562 8.09375 71.917969 9.617188 73.273438 12.460938 C 73.300781 12.519531 73.386719 12.503906 73.394531 12.445312 Z M 74.621094 13.328125 C 75.5 12.839844 78.042969 11.488281 79.4375 11.394531 C 79.4375 11.394531 78.746094 12.277344 74.964844 13.996094 C 74.863281 14.042969 74.882812 14.191406 74.992188 14.210938 C 80.449219 15.121094 81.792969 10.101562 81.792969 10.101562 C 81.792969 10.101562 76.921875 8.238281 74.464844 13.179688 C 74.417969 13.28125 74.523438 13.382812 74.621094 13.328125 Z M 49.605469 3.949219 C 50.964844 1.101562 48.402344 -0.421875 48.402344 -0.421875 C 48.402344 -0.421875 46.617188 1.957031 48.957031 4.074219 C 49.003906 4.117188 49.078125 4.074219 49.0625 4.011719 C 48.5 1.714844 48.652344 1.089844 48.652344 1.089844 C 49.105469 1.75 49.394531 3.363281 49.484375 3.929688 C 49.492188 3.992188 49.578125 4.003906 49.605469 3.949219 Z M 48.257812 4.816406 C 47.378906 4.328125 44.835938 2.972656 43.441406 2.882812 C 43.441406 2.882812 44.132812 3.765625 47.914062 5.484375 C 48.015625 5.527344 47.996094 5.679688 47.886719 5.695312 C 42.429688 6.609375 41.085938 1.585938 41.085938 1.585938 C 41.085938 1.585938 45.957031 -0.273438 48.414062 4.667969 C 48.464844 4.765625 48.355469 4.871094 48.257812 4.816406 " fill-opacity="1" fill-rule="nonzero"/></g><g clip-path="url(#f69609ef84)"><path fill="#006837" d="M 65.222656 12.691406 L 65.222656 11.769531 C 65.222656 11.675781 65.144531 11.601562 65.054688 11.601562 L 64.128906 11.601562 C 64.035156 11.601562 63.957031 11.675781 63.957031 11.769531 L 63.957031 12.691406 C 63.957031 12.785156 64.035156 12.859375 64.128906 12.859375 L 65.054688 12.859375 C 65.144531 12.859375 65.222656 12.785156 65.222656 12.691406 Z M 63.488281 12.691406 L 63.488281 11.769531 C 63.488281 11.675781 63.414062 11.601562 63.320312 11.601562 L 62.394531 11.601562 C 62.300781 11.601562 62.226562 11.675781 62.226562 11.769531 L 62.226562 12.691406 C 62.226562 12.785156 62.300781 12.859375 62.394531 12.859375 L 63.320312 12.859375 C 63.414062 12.859375 63.488281 12.785156 63.488281 12.691406 Z M 65.222656 11.039062 L 65.222656 10.117188 C 65.222656 10.023438 65.144531 9.945312 65.054688 9.945312 L 64.128906 9.945312 C 64.035156 9.945312 63.957031 10.023438 63.957031 10.117188 L 63.957031 11.039062 C 63.957031 11.132812 64.035156 11.207031 64.128906 11.207031 L 65.054688 11.207031 C 65.144531 11.207031 65.222656 11.132812 65.222656 11.039062 Z M 63.488281 11.039062 L 63.488281 10.117188 C 63.488281 10.023438 63.414062 9.945312 63.320312 9.945312 L 62.394531 9.945312 C 62.300781 9.945312 62.226562 10.023438 62.226562 10.117188 L 62.226562 11.039062 C 62.226562 11.132812 62.300781 11.207031 62.394531 11.207031 L 63.320312 11.207031 C 63.414062 11.207031 63.488281 11.132812 63.488281 11.039062 Z M 52.632812 12.691406 L 52.632812 11.769531 C 52.632812 11.675781 52.558594 11.601562 52.464844 11.601562 L 51.539062 11.601562 C 51.445312 11.601562 51.371094 11.675781 51.371094 11.769531 L 51.371094 12.691406 C 51.371094 12.785156 51.445312 12.859375 51.539062 12.859375 L 52.464844 12.859375 C 52.558594 12.859375 52.632812 12.785156 52.632812 12.691406 Z M 50.902344 12.691406 L 50.902344 11.769531 C 50.902344 11.675781 50.828125 11.601562 50.734375 11.601562 L 49.804688 11.601562 C 49.714844 11.601562 49.636719 11.675781 49.636719 11.769531 L 49.636719 12.691406 C 49.636719 12.785156 49.714844 12.859375 49.804688 12.859375 L 50.734375 12.859375 C 50.828125 12.859375 50.902344 12.785156 50.902344 12.691406 Z M 52.632812 11.039062 L 52.632812 10.117188 C 52.632812 10.023438 52.558594 9.945312 52.464844 9.945312 L 51.539062 9.945312 C 51.445312 9.945312 51.371094 10.023438 51.371094 10.117188 L 51.371094 11.039062 C 51.371094 11.132812 51.445312 11.207031 51.539062 11.207031 L 52.464844 11.207031 C 52.558594 11.207031 52.632812 11.132812 52.632812 11.039062 Z M 50.902344 11.039062 L 50.902344 10.117188 C 50.902344 10.023438 50.828125 9.945312 50.734375 9.945312 L 49.804688 9.945312 C 49.714844 9.945312 49.636719 10.023438 49.636719 10.117188 L 49.636719 11.039062 C 49.636719 11.132812 49.714844 11.207031 49.804688 11.207031 L 50.734375 11.207031 C 50.828125 11.207031 50.902344 11.132812 50.902344 11.039062 Z M 63.921875 4.242188 L 74.101562 14.125 C 74.375 14.386719 74.183594 14.851562 73.804688 14.851562 L 71.757812 14.851562 C 71.644531 14.851562 71.539062 14.808594 71.460938 14.730469 L 63.921875 7.410156 C 63.757812 7.253906 63.492188 7.253906 63.328125 7.410156 L 59.324219 11.296875 C 59.15625 11.464844 59.15625 11.738281 59.324219 11.90625 L 61.609375 14.125 C 61.882812 14.386719 61.695312 14.851562 61.3125 14.851562 L 59.265625 14.851562 C 59.15625 14.851562 59.050781 14.808594 58.96875 14.730469 L 57.378906 13.1875 L 55.746094 11.601562 L 51.433594 7.410156 C 51.265625 7.253906 51.003906 7.253906 50.839844 7.410156 L 43.300781 14.730469 C 43.222656 14.808594 43.117188 14.851562 43.003906 14.851562 L 40.957031 14.851562 C 40.574219 14.851562 40.386719 14.386719 40.660156 14.125 L 50.839844 4.242188 C 51.003906 4.082031 51.265625 4.082031 51.433594 4.242188 L 57.082031 9.726562 C 57.25 9.886719 57.511719 9.886719 57.675781 9.726562 L 63.328125 4.242188 C 63.492188 4.082031 63.757812 4.082031 63.921875 4.242188 " fill-opacity="1" fill-rule="nonzero"/></g><g clip-path="url(#7b21ac4ccc)"><path fill="#393536" d="M 11.941406 34.039062 C -0.472656 32.84375 -10.109375 26.800781 -9.976562 20.410156 C -10.390625 21.304688 -10.609375 22.234375 -10.609375 23.191406 C -10.609375 29.777344 -0.257812 35.117188 12.511719 35.117188 C 16.996094 35.117188 21.179688 34.460938 24.722656 33.320312 C 20.988281 34.195312 16.59375 34.488281 11.941406 34.039062 " fill-opacity="1" fill-rule="nonzero"/></g><g clip-path="url(#e4724c45bf)"><path fill="#004aad" d="M -5.410156 23.507812 C -6.039062 16.949219 3.757812 10.628906 16.46875 9.390625 C 19.351562 9.109375 22.132812 9.113281 24.722656 9.367188 C 21.820312 8.6875 18.601562 8.3125 15.210938 8.3125 C 2.4375 8.3125 -7.914062 13.652344 -7.914062 20.238281 C -7.914062 22.636719 -6.539062 24.871094 -4.175781 26.742188 C -4.871094 25.746094 -5.300781 24.660156 -5.410156 23.507812 " fill-opacity="1" fill-rule="nonzero"/></g><g clip-path="url(#cb583bb398)"><path fill="#004aad" d="M 33.796875 4.859375 C 30.382812 9.042969 30.382812 9.644531 33.796875 13.828125 C 29.652344 10.382812 29.054688 10.382812 24.910156 13.828125 C 28.324219 9.644531 28.324219 9.042969 24.910156 4.859375 C 29.054688 8.304688 29.652344 8.304688 33.796875 4.859375 " fill-opacity="1" fill-rule="nonzero"/></g></svg>